# xmcd CD database file
#
# Track frame offsets:
#	150
#	16656
#	47051
#	72830
#	86396
#	102758
#	122411
#	145591
#	150226
#	166890
#	197634
#	223403
#	237196
#	253625
#	273344
#
# Disc length: 3954 seconds
#
# Revision: 1
# Processed by: cddbd v1.5.2PL0 Copyright (c) Steve Scherf et al.
# Submitted via: CDex 1.78
#
DISCID=bc0f700f
DTITLE=Astor Piazzolla - Histoire du Tango and Other
DYEAR=2001
DGENRE=Jazz
TTITLE0=A.Piazzolla 1.Bordel 1900
TTITLE1=A.Piazzolla II. Cafe 1930
TTITLE2=A.Piazzolla III. Night-Club 1960
TTITLE3=A.Piazzolla IV. Concert d'aujourd'hui
TTITLE4=E. Granados Danza Espanola No.5 Andaluza Playera
TTITLE5=Sarasate Playera
TTITLE6=Sarasate Romanza Andaluza
TTITLE7=Tuning Tones
TTITLE8=MMO A.Piazzolla 1.Bordel 1900
TTITLE9=MMO A.Piazzolla II. Cafe 1930
TTITLE10=MMO A.Piazzolla III. Night-Club 1960
TTITLE11=MMO A.Piazzolla IV. Concert d'aujourd'hui
TTITLE12=MMO E. Granados Danza Espanola No.5 Andaluza Playera
TTITLE13=MMO Sarasate Playera
TTITLE14=MMO Sarasate Romanza Andaluza
EXTD=YEAR: 2001
EXTT0=
EXTT1=
EXTT2=
EXTT3=
EXTT4=
EXTT5=
EXTT6=
EXTT7=
EXTT8=
EXTT9=
EXTT10=
EXTT11=
EXTT12=
EXTT13=
EXTT14=
PLAYORDER=
